# xmcd
#
# Track frame offsets: 
#        187
#        17825
#        33827
#        51602
#        67997
#        85045
#        99782
#        115480
#        129630
#        142970
#
# Disc length: 2106 seconds
#
# Revision: 5
# Processed by: cddbd v1.5.2PL0 Copyright (c) Steve Scherf et al.
# Submitted via: ExactAudioCopy v0.95a5
#
DISCID=8008380a
DTITLE=Steve Wariner - I Got Dreams
DYEAR=1989
DGENRE=Country
TTITLE0=I Got Dreams
TTITLE1=Where Did I Go Wrong
TTITLE2=I Could Get Lucky Tonight
TTITLE3=Nothin' In The World (Gonna Keep Me From You)
TTITLE4=When I Could Come Home To You
TTITLE5=Language Of Love
TTITLE6=The Loser Wins
TTITLE7=Do You Wanna Make Something Of It
TTITLE8=Plano Texas Girl
TTITLE9=The Flower That Shattered The Stone
EXTD=more info - MillenniumMusicProjectFormat - SYNTAX=SongTitle{Subtit
EXTD=le}[miscInfo](Lyricist;Composer;Date,Artist,Location,State,Countr
EXTD=y) YEAR: 1989
EXTT0=
EXTT1=
EXTT2=
EXTT3=
EXTT4=
EXTT5=
EXTT6=
EXTT7=
EXTT8=
EXTT9=
PLAYORDER=
